HIERARCHY
ROOT Hips
{
	OFFSET 0.000000 71.427986 0.000000
	CHANNELS 6 Xposition Yposition Zposition Xrotation Yrotation Zrotation
	JOINT Pelvis
	{
		OFFSET 0.000000 0.000000 0.000000
		CHANNELS 3 Xrotation Yrotation Zrotation
		JOINT LeftUpLeg
		{
			OFFSET 6.797100 -2.508499 -1.318700
			CHANNELS 3 Xrotation Yrotation Zrotation
			JOINT LeftLeg
			{
				OFFSET 0.069008 -29.241863 0.690200
				CHANNELS 3 Xrotation Yrotation Zrotation
				JOINT LeftFoot
				{
					OFFSET -0.069008 -29.568123 -0.266800
					CHANNELS 3 Xrotation Yrotation Zrotation
					JOINT LeftToeBase
					{
						OFFSET 3.145500 -8.631000 16.059900
						CHANNELS 3 Xrotation Yrotation Zrotation
						End Site
						{
							OFFSET 0.000000 18.501587 0.000000
						}
					}
				}
			}
			JOINT Left_ShortSleeve
			{
				OFFSET 0.265923 -10.480953 1.153800
				CHANNELS 3 Xrotation Yrotation Zrotation
				End Site
				{
					OFFSET 1.725763 19.823879 0.000000
				}
			}
		}
		JOINT RightUpLeg
		{
			OFFSET -6.797100 -2.508499 -1.318700
			CHANNELS 3 Xrotation Yrotation Zrotation
			JOINT RightLeg
			{
				OFFSET -0.082453 -29.241932 0.688000
				CHANNELS 3 Xrotation Yrotation Zrotation
				JOINT RightFoot
				{
					OFFSET 0.082453 -29.568058 -0.264600
					CHANNELS 3 Xrotation Yrotation Zrotation
					JOINT RightToeBase
					{
						OFFSET -3.115300 -8.682800 16.113400
						CHANNELS 3 Xrotation Yrotation Zrotation
						End Site
						{
							OFFSET 0.000000 18.567114 0.000000
						}
					}
				}
			}
			JOINT Right_ShortSleeve
			{
				OFFSET -0.265923 -10.480953 1.153800
				CHANNELS 3 Xrotation Yrotation Zrotation
				End Site
				{
					OFFSET -1.725766 19.823910 0.000000
				}
			}
		}
	}
	JOINT Spine
	{
		OFFSET 0.000000 13.368103 0.470500
		CHANNELS 3 Xrotation Yrotation Zrotation
		JOINT Spine1
		{
			OFFSET 0.147000 13.837402 0.538800
			CHANNELS 3 Xrotation Yrotation Zrotation
			JOINT Spine2
			{
				OFFSET 0.168000 16.242897 -1.435500
				CHANNELS 3 Xrotation Yrotation Zrotation
				JOINT Neck
				{
					OFFSET 0.217200 18.631500 -1.679100
					CHANNELS 3 Xrotation Yrotation Zrotation
					JOINT Head
					{
						OFFSET 0.000000 6.599396 1.385900
						CHANNELS 3 Xrotation Yrotation Zrotation
						JOINT Hat
						{
							OFFSET -0.532200 27.220596 -10.096100
							CHANNELS 3 Xrotation Yrotation Zrotation
							End Site
							{
								OFFSET 0.000000 22.029861 0.000000
							}
						}
						JOINT HairD
						{
							OFFSET -10.777400 17.437393 -1.325900
							CHANNELS 3 Xrotation Yrotation Zrotation
							JOINT HairD1
							{
								OFFSET -3.290299 -11.051193 1.062200
								CHANNELS 3 Xrotation Yrotation Zrotation
								End Site
								{
									OFFSET 0.000000 11.579437 0.000000
								}
							}
						}
						JOINT HairB
						{
							OFFSET -10.777400 17.437393 1.467900
							CHANNELS 3 Xrotation Yrotation Zrotation
							JOINT HairB1
							{
								OFFSET -1.561200 -12.956299 3.590200
								CHANNELS 3 Xrotation Yrotation Zrotation
								End Site
								{
									OFFSET 0.000000 13.534866 0.000000
								}
							}
						}
						JOINT HairA
						{
							OFFSET 9.713100 17.437393 1.467900
							CHANNELS 3 Xrotation Yrotation Zrotation
							JOINT HairA1
							{
								OFFSET 1.561200 -12.956299 3.590200
								CHANNELS 3 Xrotation Yrotation Zrotation
								End Site
								{
									OFFSET 0.000000 13.534866 0.000000
								}
							}
						}
						JOINT HairC
						{
							OFFSET 9.713100 17.437393 -1.325900
							CHANNELS 3 Xrotation Yrotation Zrotation
							JOINT HairC1
							{
								OFFSET 3.290300 -11.051193 1.062200
								CHANNELS 3 Xrotation Yrotation Zrotation
								End Site
								{
									OFFSET 0.000000 11.579437 0.000000
								}
							}
						}
					}
				}
				JOINT LeftShoulder
				{
					OFFSET 5.101800 15.108002 -2.763700
					CHANNELS 3 Xrotation Yrotation Zrotation
					JOINT LeftArm
					{
						OFFSET 9.825497 2.506317 -1.597400
						CHANNELS 3 Xrotation Yrotation Zrotation
						JOINT LeftForeArm
						{
							OFFSET 21.966244 0.000000 0.000000
							CHANNELS 3 Xrotation Yrotation Zrotation
							JOINT LeftHand
							{
								OFFSET 33.879036 0.000000 0.000000
								CHANNELS 3 Xrotation Yrotation Zrotation
								JOINT LeftHandThumb1
								{
									OFFSET 6.715286 -2.359680 3.363841
									CHANNELS 3 Xrotation Yrotation Zrotation
									JOINT LeftHandThumb2
									{
										OFFSET 2.507072 -1.447464 1.447461
										CHANNELS 3 Xrotation Yrotation Zrotation
										JOINT LeftHandThumb3
										{
											OFFSET 2.898338 -1.673355 1.673357
											CHANNELS 3 Xrotation Yrotation Zrotation
											End Site
											{
												OFFSET -0.295959 3.727692 -0.131651
											}
										}
									}
								}
								JOINT LeftHandIndex1
								{
									OFFSET 14.190811 -0.254547 3.840278
									CHANNELS 3 Xrotation Yrotation Zrotation
									JOINT LeftHandIndex2
									{
										OFFSET 3.551727 0.000000 -0.000000
										CHANNELS 3 Xrotation Yrotation Zrotation
										JOINT LeftHandIndex3
										{
											OFFSET 2.894196 0.000000 0.000000
											CHANNELS 3 Xrotation Yrotation Zrotation
											End Site
											{
												OFFSET -1.000603 2.690872 0.366626
											}
										}
									}
								}
								JOINT LeftHandMiddle1
								{
									OFFSET 13.776489 0.000000 0.000000
									CHANNELS 3 Xrotation Yrotation Zrotation
									JOINT LeftHandMiddle2
									{
										OFFSET 3.438232 0.000000 0.000000
										CHANNELS 3 Xrotation Yrotation Zrotation
										JOINT LeftHandMiddle3
										{
											OFFSET 3.691551 0.000000 0.000000
											CHANNELS 3 Xrotation Yrotation Zrotation
											End Site
											{
												OFFSET -1.082298 3.499527 0.457670
											}
										}
									}
								}
								JOINT LeftHandRing1
								{
									OFFSET 13.966164 -0.268127 -3.067488
									CHANNELS 3 Xrotation Yrotation Zrotation
									JOINT LeftHandRing2
									{
										OFFSET 3.162567 0.000000 0.000000
										CHANNELS 3 Xrotation Yrotation Zrotation
										JOINT LeftHandRing3
										{
											OFFSET 3.324348 0.000000 0.000000
											CHANNELS 3 Xrotation Yrotation Zrotation
											End Site
											{
												OFFSET -0.861900 3.184998 0.405154
											}
										}
									}
								}
								JOINT LeftHandPinky1
								{
									OFFSET 13.131393 -0.168503 -5.746925
									CHANNELS 3 Xrotation Yrotation Zrotation
									JOINT LeftHandPinky2
									{
										OFFSET 2.849182 0.000000 0.000000
										CHANNELS 3 Xrotation Yrotation Zrotation
										JOINT LeftHandPinky3
										{
											OFFSET 2.805038 0.000000 0.000000
											CHANNELS 3 Xrotation Yrotation Zrotation
											End Site
											{
												OFFSET -0.882500 2.642609 0.325652
											}
										}
									}
								}
							}
							JOINT Left_Sleeve
							{
								OFFSET 6.592125 -0.646545 0.805568
								CHANNELS 3 Xrotation Yrotation Zrotation
								End Site
								{
									OFFSET -0.000179 20.275787 -0.000000
								}
							}
						}
					}
				}
				JOINT RightShoulder
				{
					OFFSET -5.731700 15.108002 -2.763700
					CHANNELS 3 Xrotation Yrotation Zrotation
					JOINT RightArm
					{
						OFFSET -9.825497 2.506317 -1.597400
						CHANNELS 3 Xrotation Yrotation Zrotation
						JOINT RightForeArm
						{
							OFFSET -21.966242 0.000000 0.000000
							CHANNELS 3 Xrotation Yrotation Zrotation
							JOINT RightHand
							{
								OFFSET -33.879032 0.000000 0.000000
								CHANNELS 3 Xrotation Yrotation Zrotation
								JOINT RightHandThumb1
								{
									OFFSET -6.715286 -2.359680 3.363841
									CHANNELS 3 Xrotation Yrotation Zrotation
									JOINT RightHandThumb2
									{
										OFFSET -2.507072 -1.447464 1.447461
										CHANNELS 3 Xrotation Yrotation Zrotation
										JOINT RightHandThumb3
										{
											OFFSET -2.898338 -1.673355 1.673357
											CHANNELS 3 Xrotation Yrotation Zrotation
											End Site
											{
												OFFSET 0.295959 3.727692 -0.131651
											}
										}
									}
								}
								JOINT RightHandIndex1
								{
									OFFSET -14.190811 -0.254547 3.840278
									CHANNELS 3 Xrotation Yrotation Zrotation
									JOINT RightHandIndex2
									{
										OFFSET -3.551727 0.000000 -0.000000
										CHANNELS 3 Xrotation Yrotation Zrotation
										JOINT RightHandIndex3
										{
											OFFSET -2.894196 0.000000 0.000000
											CHANNELS 3 Xrotation Yrotation Zrotation
											End Site
											{
												OFFSET 1.000603 2.690872 0.366626
											}
										}
									}
								}
								JOINT RightHandMiddle1
								{
									OFFSET -13.776489 0.000000 0.000000
									CHANNELS 3 Xrotation Yrotation Zrotation
									JOINT RightHandMiddle2
									{
										OFFSET -3.438232 0.000000 0.000000
										CHANNELS 3 Xrotation Yrotation Zrotation
										JOINT RightHandMiddle3
										{
											OFFSET -3.691551 0.000000 0.000000
											CHANNELS 3 Xrotation Yrotation Zrotation
											End Site
											{
												OFFSET 1.082298 3.499527 0.457670
											}
										}
									}
								}
								JOINT RightHandRing1
								{
									OFFSET -13.966164 -0.268127 -3.067488
									CHANNELS 3 Xrotation Yrotation Zrotation
									JOINT RightHandRing2
									{
										OFFSET -3.162567 0.000000 0.000000
										CHANNELS 3 Xrotation Yrotation Zrotation
										JOINT RightHandRing3
										{
											OFFSET -3.324348 0.000000 0.000000
											CHANNELS 3 Xrotation Yrotation Zrotation
											End Site
											{
												OFFSET 0.861900 3.184998 0.405154
											}
										}
									}
								}
								JOINT RightHandPinky1
								{
									OFFSET -13.131393 -0.168503 -5.746925
									CHANNELS 3 Xrotation Yrotation Zrotation
									JOINT RightHandPinky2
									{
										OFFSET -2.849182 0.000000 0.000000
										CHANNELS 3 Xrotation Yrotation Zrotation
										JOINT RightHandPinky3
										{
											OFFSET -2.805038 0.000000 0.000000
											CHANNELS 3 Xrotation Yrotation Zrotation
											End Site
											{
												OFFSET 0.882500 2.642609 0.325652
											}
										}
									}
								}
							}
							JOINT Right_Sleeve
							{
								OFFSET -6.592125 -0.646545 0.805568
								CHANNELS 3 Xrotation Yrotation Zrotation
								End Site
								{
									OFFSET 0.000179 20.275787 -0.000000
								}
							}
						}
					}
				}
				JOINT Bind_Right_JacketString
				{
					OFFSET -3.534800 11.969597 7.200700
					CHANNELS 3 Xrotation Yrotation Zrotation
					JOINT Bind_Right_JacketString1
					{
						OFFSET -0.319900 -6.102600 2.794100
						CHANNELS 3 Xrotation Yrotation Zrotation
						End Site
						{
							OFFSET 0.000000 6.719452 0.000000
						}
					}
				}
				JOINT Bind_Left_JacketString
				{
					OFFSET 2.904800 11.969597 7.200700
					CHANNELS 3 Xrotation Yrotation Zrotation
					JOINT Bind_Left_JacketString1
					{
						OFFSET 0.364800 -5.904503 3.186800
						CHANNELS 3 Xrotation Yrotation Zrotation
						End Site
						{
							OFFSET 0.000000 6.719513 0.000000
						}
					}
				}
				JOINT HairE
				{
					OFFSET 5.915200 17.612701 -11.592200
					CHANNELS 3 Xrotation Yrotation Zrotation
					JOINT HairE1
					{
						OFFSET 0.289200 -7.171898 -1.284500
						CHANNELS 3 Xrotation Yrotation Zrotation
						End Site
						{
							OFFSET 0.000000 7.291756 0.000000
						}
					}
				}
				JOINT HairF
				{
					OFFSET -0.864800 17.612701 -11.592200
					CHANNELS 3 Xrotation Yrotation Zrotation
					JOINT HairF1
					{
						OFFSET 0.000000 -14.087097 -2.127501
						CHANNELS 3 Xrotation Yrotation Zrotation
						End Site
						{
							OFFSET 0.000000 14.246841 0.000000
						}
					}
				}
				JOINT HairG
				{
					OFFSET -8.087700 17.612701 -11.592200
					CHANNELS 3 Xrotation Yrotation Zrotation
					JOINT HairG1
					{
						OFFSET -0.293600 -6.081398 -0.910100
						CHANNELS 3 Xrotation Yrotation Zrotation
						End Site
						{
							OFFSET 0.000000 6.156120 0.000000
						}
					}
				}
			}
		}
	}
	JOINT Pouch
	{
		OFFSET 0.000000 4.394501 10.847300
		CHANNELS 3 Xrotation Yrotation Zrotation
		End Site
		{
			OFFSET 0.000000 21.880577 0.000000
		}
	}
	JOINT Bag
	{
		OFFSET -13.229000 4.813004 -0.593300
		CHANNELS 3 Xrotation Yrotation Zrotation
		End Site
		{
			OFFSET 0.000000 21.880577 0.000000
		}
	}
	JOINT OccupyGuyFacialAnim_Joint
	{
		OFFSET 1.000000 -70.206398 -1.655000
		CHANNELS 3 Xrotation Yrotation Zrotation
		End Site
		{
			OFFSET 0.000000 21.880577 0.000000
		}
	}
}
MOTION
Frames: 4
Frame Time: 0.033333
1.166573 63.209480 -17.213017 14.154658 -17.492910 1.278877 0.000000 0.000000 0.000000 -63.999781 8.703013 15.458291 122.687614 -8.687948 0.032505 -37.626870 6.033933 8.924777 0.000001 0.000000 -0.000000 0.000002 -0.000000 -0.000000 -19.460833 -3.218658 5.200252 52.660598 -2.219915 -4.214046 -38.150670 -1.850105 2.290268 -0.000000 -0.000002 0.000000 0.000000 0.000002 0.000000 36.349703 16.283436 -14.542849 0.218861 3.082964 8.072998 -0.101766 3.632392 7.842905 -0.979658 0.350803 -5.389333 -31.560573 0.017639 -10.899542 0.000001 -0.000000 0.000000 0.000001 -0.000000 0.000000 0.000001 -0.000000 0.000000 0.000001 -0.000000 0.000000 -0.000001 0.000000 -0.000000 0.000001 -0.000000 0.000000 -0.000001 0.000000 -0.000000 0.000001 -0.000000 0.000000 0.000001 -0.000000 0.000000 5.025575 6.335406 2.101888 46.204717 0.040108 -66.783158 0.000033 -108.291775 0.000050 -2.817193 -11.362963 19.894634 -6.414434 -8.233362 17.003683 23.718549 30.327590 -9.434074 -0.000003 -0.000001 -0.000003 -0.886483 2.921747 -35.743732 3.751466 5.462586 -68.937646 0.000001 -0.000002 -0.000002 4.637171 8.633550 -54.179038 3.954639 5.536216 -71.057456 -0.000000 -0.000000 0.000001 6.783423 9.445330 -61.737547 3.498527 5.358800 -66.255649 0.000000 0.000003 -0.000000 8.450413 18.237498 -61.948013 3.519930 5.368125 -66.484508 -0.000002 -0.000001 0.000003 0.000002 -0.000001 -0.000001 -0.226231 13.923066 1.315626 -52.032197 26.156980 64.729969 -0.000015 108.504009 -0.000014 12.299286 17.241428 0.772502 -6.697006 7.238161 -17.467382 12.475122 -21.107137 -8.932693 -0.000000 -0.000001 0.000000 6.999837 -10.345454 49.443869 3.265933 -4.444930 72.600758 -0.000002 0.000002 0.000002 6.612944 -9.280508 55.006454 2.605488 -4.181780 63.836403 0.000002 -0.000002 0.000004 8.952922 -9.439625 64.627475 2.681002 -4.217947 64.867502 -0.000000 -0.000001 -0.000002 6.597694 -18.997843 54.203586 2.600903 -4.179534 63.773510 -0.000001 -0.000001 0.000000 -0.000001 0.000000 0.000001 -0.000003 0.000000 0.000000 -0.000003 -0.000000 -0.000001 -0.000003 0.000000 -0.000000 -0.000003 0.000000 -0.000000 -0.000003 0.000000 0.000000 -0.000003 -0.000000 -0.000001 -0.000003 0.000000 -0.000000 -0.000003 0.000000 -0.000000 -0.000003 0.000000 0.000000 -0.000003 -0.000000 -0.000001 0.000000 0.000000 0.000000 0.000000 0.000000 0.000000 0.000000 0.000000 0.000000 
-0.125262 58.638062 -6.359781 15.935764 -22.646413 -3.458437 -0.000000 0.000000 -0.000000 -70.935558 2.227935 4.030120 126.128336 9.717410 -1.577359 -31.385382 0.722376 1.139828 0.000002 0.000001 0.000000 0.000006 -0.000001 -0.000001 -2.757173 -14.786326 -3.949044 44.767030 9.396604 10.637922 -48.453970 2.976833 -7.693292 -0.000000 -0.000001 0.000000 -0.000000 0.000000 0.000000 43.755664 19.647898 -11.911356 1.656607 4.766089 5.539797 1.379384 5.595886 5.061195 -4.268475 -0.888844 -2.650007 -37.120893 -1.462057 -9.356505 -0.000002 -0.000000 0.000000 -0.000002 -0.000000 0.000000 -0.000002 -0.000000 -0.000000 -0.000002 -0.000000 -0.000000 -0.000002 -0.000000 -0.000000 -0.000002 -0.000000 -0.000000 -0.000002 -0.000000 -0.000000 -0.000002 -0.000000 0.000000 -0.000002 -0.000000 0.000000 1.659531 4.239390 15.697656 33.201813 -18.083301 -55.012423 -0.000740 -87.249970 -0.000846 -11.226023 -30.208363 27.735547 -6.409053 -7.987783 15.202989 20.905918 28.062563 -7.178262 0.000002 0.000001 0.000000 -0.323622 2.601612 -31.085321 2.841275 5.019883 -58.998675 0.000001 0.000001 -0.000003 3.562319 8.161023 -46.775779 3.001402 5.112318 -60.811756 -0.000001 0.000004 -0.000000 5.249575 9.142788 -53.217170 2.643023 4.895764 -56.704907 0.000001 0.000003 0.000002 5.487135 16.805773 -53.151931 2.659740 4.906668 -56.900605 -0.000001 0.000002 -0.000000 -0.000003 0.000000 -0.000001 0.085007 11.567059 9.230710 -81.372620 23.027068 84.724931 -0.000364 85.043539 0.000318 53.828707 25.430910 -8.157601 -6.780906 7.423562 -15.513632 11.561670 -20.070132 -8.045583 0.000003 0.000002 0.000001 5.339956 -9.822239 42.572876 2.483426 -4.119716 62.150343 -0.000002 0.000000 0.000000 5.075271 -8.928992 47.358097 1.964689 -3.801350 54.650457 0.000001 -0.000002 -0.000003 6.960014 -9.450170 55.585736 2.023507 -3.842320 55.532788 -0.000001 -0.000001 -0.000000 3.921733 -17.181114 46.461061 1.961116 -3.798846 54.596632 0.000004 0.000001 0.000001 0.000001 0.000001 -0.000000 -0.000000 0.000000 -0.000000 -0.000002 0.000000 -0.000001 -0.000000 0.000000 -0.000000 -0.000000 0.000000 -0.000000 -0.000000 0.000000 -0.000000 -0.000002 0.000000 -0.000000 -0.000000 0.000000 -0.000000 -0.000000 0.000000 -0.000000 -0.000000 0.000000 -0.000000 -0.000002 0.000000 -0.000000 -0.000000 0.000000 -0.000000 -0.000000 0.000000 -0.000000 -0.000000 0.000000 -0.000000 
-1.492106 54.058334 4.462542 17.559798 -27.691744 -7.129986 -0.000001 -0.000000 -0.000000 -80.009027 8.116603 -14.099950 124.370833 10.508741 10.110610 -13.478956 21.251282 -1.138922 -0.000001 0.000001 -0.000000 0.000002 -0.000001 -0.000005 23.724725 -13.783896 0.618140 16.344470 -9.695209 10.034609 -46.136804 3.659010 -1.027739 -0.000001 0.000003 -0.000000 0.000001 -0.000003 -0.000002 53.709602 18.466108 -17.692908 2.643018 5.783110 3.265712 2.325509 6.685013 2.620576 -7.574804 -1.895331 2.537759 -42.680418 0.991016 -11.567198 -0.000000 0.000000 0.000000 -0.000000 0.000000 0.000000 -0.000000 0.000000 0.000000 -0.000000 0.000000 0.000000 0.000002 0.000000 -0.000000 -0.000000 0.000000 0.000000 0.000002 0.000000 -0.000000 -0.000000 0.000000 0.000000 -0.000000 0.000000 0.000000 0.510600 2.937053 23.095431 19.219355 -21.047617 -45.112208 -0.000088 -97.019559 -0.000044 -13.948296 -30.153079 39.646403 -6.386593 -7.714735 13.364183 18.136492 25.622584 -5.121133 0.000000 -0.000001 -0.000001 0.282066 2.357852 -26.305219 2.002624 4.410644 -48.823633 0.000000 0.000000 -0.000000 2.571722 7.504321 -39.208496 2.119231 4.509658 -50.322580 0.000000 0.000002 0.000004 3.802858 8.535744 -44.506664 1.858934 4.281063 -46.927252 0.000001 0.000001 -0.000002 2.999429 14.844305 -44.282176 1.871021 4.292304 -47.089059 -0.000004 0.000003 -0.000000 0.000001 -0.000000 0.000002 2.241330 9.032947 2.588249 -100.963692 10.488602 90.129612 0.000046 70.432870 -0.000065 67.185962 28.510878 -10.222565 -6.850005 7.594799 -13.517438 10.638000 -19.034083 -7.102342 -0.000002 -0.000001 0.000001 3.814427 -9.009941 35.563166 1.756488 -3.645057 51.445251 -0.000000 -0.000001 0.000002 3.643362 -8.287204 39.541639 1.379741 -3.310526 45.240701 0.000003 -0.000001 -0.000004 5.042099 -9.016558 46.325673 1.422163 -3.351986 45.970639 0.000005 0.000002 -0.000003 1.756648 -14.936934 38.675902 1.377176 -3.307998 45.196151 -0.000000 -0.000002 -0.000001 -0.000000 -0.000000 -0.000000 0.000000 0.000001 -0.000000 0.000000 0.000001 0.000000 0.000000 0.000001 -0.000000 0.000000 0.000001 -0.000000 0.000000 0.000001 -0.000000 0.000000 0.000001 0.000000 0.000000 0.000001 -0.000000 0.000000 0.000001 -0.000000 0.000000 0.000001 -0.000000 0.000000 0.000001 0.000000 -0.000001 -0.000000 -0.000000 -0.000001 -0.000000 -0.000000 -0.000001 -0.000000 -0.000000 
-2.758900 49.356232 15.073804 19.077968 -32.919552 -10.281450 -0.000000 0.000000 -0.000001 -92.249068 2.667424 -13.324084 122.684992 7.700104 6.819878 4.031882 16.710268 0.995201 -0.000003 0.000000 -0.000000 0.000003 -0.000001 -0.000002 18.683197 -12.898193 -9.464246 36.542420 -4.346016 14.415164 -31.785761 -5.326792 10.159708 -0.000001 -0.000001 0.000002 0.000002 0.000001 -0.000000 54.807480 13.651271 -19.320261 2.785692 4.762763 2.332375 2.499851 5.425400 1.874009 -7.777851 -1.281026 3.630270 -44.715551 5.842728 -11.364841 0.000000 0.000000 0.000000 0.000000 0.000000 0.000000 0.000000 0.000000 0.000001 0.000000 0.000000 0.000000 0.000000 0.000000 0.000000 0.000000 0.000000 0.000000 0.000000 0.000000 0.000000 0.000000 0.000000 0.000000 0.000000 0.000000 0.000000 2.351260 3.410886 12.695840 0.794292 -18.986544 -39.617641 0.000223 -103.988162 0.000191 -10.471903 -20.115722 36.354570 -6.354199 -7.475288 11.852155 15.979764 23.786001 -3.634410 -0.000001 0.000002 -0.000001 0.905461 2.312796 -22.750892 1.427570 3.833627 -40.836396 0.000001 0.000000 -0.000002 1.955978 6.963676 -33.597311 1.510857 3.927724 -42.067070 0.000001 -0.000001 0.000001 2.878619 7.945620 -38.180354 1.323665 3.710305 -39.257175 -0.000001 0.000003 0.000001 1.624107 13.102074 -38.091712 1.343286 3.734106 -39.559052 -0.000001 -0.000000 -0.000001 0.000000 -0.000002 -0.000002 1.746374 10.273235 1.364549 -98.841737 12.887325 84.392219 -0.000013 59.521608 0.000013 61.992648 20.488834 -3.434311 -6.948201 7.925063 -11.829338 9.951429 -18.660299 -6.329593 0.000002 -0.000001 0.000001 2.768610 -8.181481 30.214257 1.257106 -3.184422 43.076056 0.000001 0.000003 0.000001 2.670907 -7.599525 33.751049 0.995612 -2.879829 38.135337 0.000002 -0.000000 -0.000003 3.701474 -8.374059 39.386525 1.027236 -2.919609 38.760436 -0.000000 -0.000001 -0.000003 0.556325 -12.956517 33.089268 0.998347 -2.883337 38.190125 -0.000000 0.000000 -0.000003 0.000000 -0.000001 -0.000000 -0.000000 0.000000 -0.000001 -0.000001 0.000000 -0.000000 -0.000000 0.000000 -0.000001 -0.000000 0.000000 -0.000001 -0.000000 0.000000 -0.000001 -0.000001 0.000000 0.000000 -0.000000 0.000000 -0.000001 -0.000000 0.000000 -0.000001 -0.000000 0.000000 -0.000001 -0.000001 0.000000 0.000000 -0.000000 0.000000 -0.000001 -0.000000 0.000000 -0.000001 -0.000000 0.000000 -0.000001 
